<?xml version="1.0" standalone="no"?>
<!DOCTYPE svg PUBLIC "-//W3C//DTD SVG 20010904//EN"
 "http://www.w3.org/TR/2001/REC-SVG-20010904/DTD/svg10.dtd">
<svg version="1.0" xmlns="http://www.w3.org/2000/svg"
 width="109.000000pt" height="24.000000pt" viewBox="0 0 109.000000 24.000000"
 preserveAspectRatio="xMidYMid meet">

<g transform="translate(0.000000,24.000000) scale(0.100000,-0.100000)"
fill="#000000" stroke="none">
<path d="M0 120 l0 -120 545 0 545 0 0 120 0 120 -545 0 -545 0 0 -120z m89
53 c0 -11 -3 -13 -6 -5 -2 6 -13 12 -24 12 -14 0 -19 -7 -19 -26 0 -19 4 -25
15 -20 9 3 15 0 15 -9 0 -9 -6 -12 -16 -8 -14 5 -16 1 -12 -25 3 -19 0 -32 -6
-32 -7 0 -11 25 -11 65 l0 65 33 0 c24 0 32 -4 31 -17z m90 0 c0 -11 -3 -13
-6 -5 -2 6 -9 12 -15 12 -6 0 -8 -24 -6 -60 2 -36 -1 -60 -7 -60 -6 0 -9 24
-7 60 2 36 0 60 -6 60 -6 0 -13 -6 -15 -12 -3 -8 -6 -6 -6 5 -1 13 7 17 34 17
27 0 35 -4 34 -17z m43 -43 c-3 -55 -2 -60 16 -60 11 0 23 6 25 13 3 7 6 5 6
-5 1 -14 -7 -18 -31 -18 l-33 0 0 65 c0 37 4 65 10 65 6 0 9 -24 7 -60z m560
-5 c2 -39 -1 -65 -7 -65 -6 0 -10 28 -10 65 0 84 12 84 17 0z m182 13 c8 -5 7
-8 -1 -8 -8 0 -13 -13 -13 -30 0 -29 13 -40 23 -20 3 6 4 5 3 -2 -5 -26 -31
-13 -34 17 -2 16 -9 33 -15 37 -9 6 -9 8 1 8 6 0 12 8 13 18 0 13 2 14 6 2 3
-8 11 -18 17 -22z m-607 -18 c4 -12 3 -13 -5 -1 -15 21 -44 5 -40 -21 2 -17 9
-23 26 -22 16 0 20 -2 12 -10 -13 -13 -44 4 -48 28 -8 37 46 62 55 26z m84
-22 c5 -35 5 -36 -25 -35 -37 2 -42 27 -8 42 27 12 29 25 2 25 -11 0 -20 -5
-20 -12 0 -6 -3 -9 -6 -5 -12 11 8 28 29 25 16 -2 23 -12 28 -40z m49 6 c0
-24 4 -34 13 -31 6 2 12 18 12 35 0 45 12 40 17 -7 3 -37 2 -39 -22 -38 -20 2
-26 9 -31 40 -3 20 -2 37 3 37 4 0 8 -16 8 -36z m140 17 c0 -12 -3 -12 -12 -3
-14 14 -48 16 -48 3 0 -5 14 -14 31 -20 39 -13 33 -36 -9 -37 -23 -1 -32 4
-32 15 0 12 3 12 12 3 15 -15 48 -16 48 -2 0 6 -6 10 -13 10 -22 0 -51 26 -43
39 11 17 66 10 66 -8z m81 -23 c5 -35 5 -36 -25 -35 -37 2 -42 27 -8 42 27 12
29 25 2 25 -11 0 -20 -5 -20 -12 0 -6 -3 -9 -6 -5 -12 11 8 28 29 25 16 -2 23
-12 28 -40z m161 2 c2 -23 -1 -40 -7 -40 -5 0 -10 18 -10 40 0 22 3 40 6 40 4
0 9 -18 11 -40z m163 30 c-3 -5 -2 -17 3 -26 8 -15 10 -15 16 1 3 9 4 21 0 26
-3 5 2 9 11 9 14 0 13 -6 -7 -42 -22 -40 -48 -61 -48 -39 0 6 3 10 8 10 20 -3
21 4 8 36 -13 31 -13 35 0 35 8 0 12 -4 9 -10z"/>
<path d="M395 89 c-4 -6 -4 -13 -1 -16 8 -8 36 5 36 17 0 13 -27 13 -35 -1z"/>
<path d="M665 89 c-4 -6 -4 -13 -1 -16 8 -8 36 5 36 17 0 13 -27 13 -35 -1z"/>
</g>
</svg>
